<svg xmlns="http://www.w3.org/2000/svg" xmlns:xlink="http://www.w3.org/1999/xlink" fill="none" height="32" viewBox="0 0 157 32" width="157"><linearGradient id="a" gradientUnits="userSpaceOnUse" x1="117.438" x2="117.438" y1="-5.6" y2="36.8"><stop offset="0" stop-color="#da51c7"/><stop offset=".21875" stop-color="#b81fa8"/><stop offset="1" stop-color="#911d9f"/></linearGradient><clipPath id="b"><path d="m7 10h18.3081v12h-18.3081z"/></clipPath><rect fill="url(#a)" height="32" rx="4" width="157"/><g clip-path="url(#b)"><path d="m24.0763 12.6147c-.5135-.5945-1.1725-1.0572-1.9008-1.2845-.4005-.7848-1.2102-1.3302-2.1512-1.3302-1.3361 0-2.4231 1.0861-2.4231 2.421s1.0864 2.421 2.4231 2.421c1.118 0 2.0523-.7646 2.3303-1.7949.2106.1412.4139.3181.6017.5353.5196.6019.871 1.4405.871 2.3692 0 1.8198-1.4768 3.2953-3.2982 3.2953-.7282 0-1.299-.1406-1.8429-.5878-.5748-.4734-1.1907-1.349-1.8443-2.9825-.6919-1.729-1.4229-2.8716-2.2784-3.5744-.8864-.7296-1.8294-.9253-2.7846-.9253-2.63914 0-4.7789 2.1378-4.7789 4.7747 0 1.3.49001 2.4788 1.23176 3.337.73501.8507 1.76753 1.4378 2.87414 1.4378.2746 0 .5465-.033.7956-.076l.4408 1.1748c.0788.2098.3648.2374.482.0464l1.7917-2.9173c.0949-.1547.0121-.3571-.1642-.4015l-3.1844-.7962c-.2107-.0525-.3938.1527-.3177.3551l.4173 1.1109c-.0882.0101-.1777.0243-.2611.0243-.5762 0-1.22642-.3161-1.75345-.9261-.5203-.6019-.87165-1.4405-.87165-2.3692 0-1.8198 1.47676-3.2952 3.2981-3.2952.7277 0 1.2991.1405 1.843.5877.5748.4735 1.1907 1.3491 1.8442 2.9826.692 1.729 1.423 2.8715 2.2785 3.5743.8864.7297 1.8301.9254 2.7845.9254 2.6399 0 4.779-2.1379 4.779-4.7748 0-1.2999-.49-2.4788-1.2318-3.3369zm-4.052.7478c-.5189 0-.9423-.423-.9423-.9415s.4234-.9415.9423-.9415c.519 0 .9423.423.9423.9415s-.4233.9415-.9423.9415z" fill="#fff"/></g><path d="m49.9902 16.0636c0 .9474-.1733 1.7619-.5199 2.4435-.3466.6787-.8217 1.2015-1.4254 1.5683-.6007.3639-1.2838.5459-2.0492.5459-.7683 0-1.4542-.182-2.0579-.5459-.6007-.3668-1.0744-.891-1.421-1.5726-.3466-.6817-.5199-1.4947-.5199-2.4392 0-.9473.1733-1.7604.5199-2.4391.3466-.6816.8203-1.2044 1.421-1.5683.6037-.3668 1.2896-.5502 2.0579-.5502.7654 0 1.4485.1834 2.0492.5502.6037.3639 1.0788.8867 1.4254 1.5683.3466.6787.5199 1.4918.5199 2.4391zm-1.3257 0c0-.722-.117-1.33-.351-1.8239-.231-.4968-.5487-.8723-.9531-1.1264-.4014-.2571-.8563-.3856-1.3647-.3856-.5112 0-.9675.1285-1.369.3856-.4015.2541-.7192.6296-.9531 1.1264-.2311.4939-.3466 1.1019-.3466 1.8239 0 .7221.1155 1.3315.3466 1.8283.2339.4939.5516.8694.9531 1.1264.4015.2542.8578.3813 1.369.3813.5084 0 .9633-.1271 1.3647-.3813.4044-.257.7221-.6325.9531-1.1264.234-.4968.351-1.1062.351-1.8283zm3.1348 6.9319v-9.15h1.265v1.0787h.1083c.0751-.1386.1834-.2989.3249-.4809.1416-.1819.338-.3408.5893-.4765.2512-.1387.5834-.208.9964-.208.5372 0 1.0167.1358 1.4384.4073.4216.2714.7523.6628.9921 1.174.2426.5112.3639 1.1264.3639 1.8456s-.1199 1.3358-.3596 1.85c-.2397.5112-.569.9054-.9878 1.1827-.4188.2744-.8968.4116-1.434.4116-.4044 0-.7351-.0679-.9921-.2037-.2542-.1357-.4535-.2946-.5979-.4765-.1444-.182-.2556-.3437-.3336-.4852h-.078v3.5309zm1.2693-5.8228c0 .4679.0679.8781.2037 1.2304.1357.3524.3321.6282.5892.8275.257.1964.5718.2946.9444.2946.3871 0 .7105-.1025.9705-.3076.2599-.2079.4563-.4895.5892-.8448.1357-.3553.2036-.7553.2036-1.2001 0-.439-.0664-.8332-.1993-1.1827-.13-.3495-.3264-.6253-.5892-.8275-.2599-.2022-.5849-.3033-.9748-.3033-.3754 0-.6932.0968-.9531.2903-.2571.1935-.452.4636-.5849.8102-.1328.3465-.1993.7509-.1993 1.213zm9.3724 3.4616c-.6557 0-1.2203-.1401-1.694-.4202-.4708-.2831-.8347-.6802-1.0917-1.1914-.2542-.5142-.3813-1.1164-.3813-1.8066 0-.6817.1271-1.2824.3813-1.8023.257-.5199.6152-.9257 1.0744-1.2174.4621-.2917 1.0022-.4376 1.6203-.4376.3755 0 .7394.0621 1.0918.1863.3523.1242.6686.3192.9488.5849.2801.2657.5011.6108.6628 1.0354.1618.4217.2426.9344.2426 1.538v.4592h-5.2898v-.9704h4.0204c0-.3408-.0693-.6426-.2079-.9055-.1387-.2657-.3336-.4751-.5849-.6282-.2484-.1531-.5401-.2296-.8751-.2296-.364 0-.6817.0895-.9532.2686-.2686.1762-.4765.4073-.6238.6932-.1444.283-.2166.5906-.2166.9228v.7582c0 .4448.0779.8231.2339 1.135.1589.312.3798.5503.6629.7149.283.1617.6137.2426.9921.2426.2455 0 .4693-.0347.6715-.104.2022-.0722.3769-.179.5242-.3206.1473-.1415.26-.3162.3379-.5242l1.2261.221c-.0982.361-.2744.6773-.5285.9488-.2513.2686-.5676.478-.9488.6282-.3784.1473-.8102.2209-1.2954.2209zm5.8317-4.0854v3.9511h-1.2954v-6.6545h1.2434v1.0831h.0823c.1531-.3524.3928-.6355.7192-.8492.3292-.2137.7437-.3206 1.2434-.3206.4534 0 .8506.0953 1.1914.2859.3408.1878.6051.4679.7928.8405s.2816.8333.2816 1.3821v4.2327h-1.2954v-4.0768c0-.4823-.1256-.8592-.3769-1.1307-.2513-.2744-.5964-.4116-1.0354-.4116-.3004 0-.5676.065-.8015.195-.2311.1299-.4145.3205-.5502.5718-.1329.2484-.1993.5488-.1993.9012zm9.7127 3.9511v-6.6545h1.2954v6.6545zm.6542-7.6813c-.2253 0-.4188-.0751-.5805-.2253-.1589-.1531-.2383-.335-.2383-.5459 0-.2137.0794-.3957.2383-.5459.1617-.153.3552-.2296.5805-.2296s.4174.0766.5762.2296c.1617.1502.2426.3322.2426.5459 0 .2109-.0809.3928-.2426.5459-.1588.1502-.3509.2253-.5762.2253zm3.9233 3.7302v3.9511h-1.2954v-6.6545h1.2434v1.0831h.0823c.1531-.3524.3928-.6355.7192-.8492.3292-.2137.7437-.3206 1.2434-.3206.4534 0 .8506.0953 1.1914.2859.3408.1878.6051.4679.7928.8405s.2816.8333.2816 1.3821v4.2327h-1.2954v-4.0768c0-.4823-.1256-.8592-.3769-1.1307-.2513-.2744-.5964-.4116-1.0354-.4116-.3004 0-.5676.065-.8015.195-.2311.1299-.4145.3205-.5502.5718-.1329.2484-.1993.5488-.1993.9012zm17.1861-2.0363h-1.3517c-.052-.2888-.1488-.543-.2903-.7625s-.3148-.4058-.5199-.5588c-.2051-.1531-.4347-.2686-.6888-.3466-.2513-.078-.5185-.117-.8015-.117-.5112 0-.969.1285-1.3734.3856-.4015.257-.7192.634-.9531 1.1307-.2311.4968-.3466 1.1033-.3466 1.8196 0 .7221.1155 1.3315.3466 1.8283.2339.4968.5531.8723.9574 1.1264.4044.2542.8593.3813 1.3647.3813.2802 0 .5459-.0376.7972-.1127.2542-.078.4838-.192.6889-.3422.205-.1502.3783-.3336.5198-.5502.1445-.2195.2441-.4708.299-.7539l1.3517.0044c-.0722.4361-.2123.8376-.4203 1.2044-.205.3639-.4693.6787-.7928.9444-.3206.2629-.6874.4665-1.1004.6109s-.8636.2166-1.3517.2166c-.7683 0-1.4528-.182-2.0536-.5459-.6007-.3668-1.0744-.891-1.421-1.5726-.3437-.6817-.5156-1.4947-.5156-2.4392 0-.9473.1733-1.7604.5199-2.4391.3466-.6816.8203-1.2044 1.4211-1.5683.6007-.3668 1.2838-.5502 2.0492-.5502.4708 0 .9098.0678 1.317.2036.4102.1328.7784.3292 1.1048.5892.3264.257.5964.5719.8101.9445.2138.3696.3582.7928.4333 1.2693zm4.545 6.1217c-.624 0-1.168-.143-1.633-.4289s-.826-.686-1.083-1.2001c-.258-.5141-.386-1.1148-.386-1.8022 0-.6903.128-1.294.386-1.811.257-.517.618-.9184 1.083-1.2044.465-.2859 1.009-.4289 1.633-.4289s1.168.143 1.633.4289c.465.286.826.6874 1.083 1.2044s.386 1.1207.386 1.811c0 .6874-.129 1.2881-.386 1.8022s-.618.9142-1.083 1.2001-1.009.4289-1.633.4289zm.004-1.0874c.405 0 .74-.1069 1.005-.3206.266-.2138.463-.4982.59-.8535.13-.3553.195-.7466.195-1.1741 0-.4246-.065-.8145-.195-1.1697-.127-.3582-.324-.6455-.59-.8622-.265-.2166-.6-.3249-1.005-.3249-.407 0-.745.1083-1.013.3249-.266.2167-.464.504-.594.8622-.127.3552-.191.7451-.191 1.1697 0 .4275.064.8188.191 1.1741.13.3553.328.6397.594.8535.268.2137.606.3206 1.013.3206zm7.279 1.0831c-.537 0-1.017-.1372-1.438-.4116-.419-.2773-.748-.6715-.988-1.1827-.237-.5142-.355-1.1308-.355-1.85s.119-1.3344.359-1.8456c.243-.5112.575-.9026.997-1.174.421-.2715.899-.4073 1.434-.4073.413 0 .745.0693.996.208.254.1357.451.2946.589.4765.142.182.252.3423.33.4809h.078v-3.2969h1.295v8.8727h-1.265v-1.0354h-.108c-.078.1415-.191.3032-.338.4852-.145.1819-.344.3408-.598.4765-.254.1358-.584.2037-.988.2037zm.286-1.1048c.373 0 .687-.0982.944-.2946.26-.1993.457-.4751.59-.8275.135-.3523.203-.7625.203-1.2304 0-.4621-.066-.8665-.199-1.213-.133-.3466-.328-.6167-.585-.8102s-.575-.2903-.953-.2903c-.39 0-.715.1011-.975.3033s-.456.478-.589.8275c-.13.3495-.195.7437-.195 1.1827 0 .4448.066.8448.199 1.2001s.33.6369.589.8448c.263.2051.587.3076.971.3076zm7.972 1.1091c-.656 0-1.22-.1401-1.694-.4202-.471-.2831-.835-.6802-1.092-1.1914-.254-.5142-.381-1.1164-.381-1.8066 0-.6817.127-1.2824.381-1.8023.257-.5199.615-.9257 1.075-1.2174.462-.2917 1.002-.4376 1.62-.4376.375 0 .739.0621 1.092.1863.352.1242.668.3192.948.5849.281.2657.502.6108.663 1.0354.162.4217.243.9344.243 1.538v.4592h-5.29v-.9704h4.02c0-.3408-.069-.6426-.207-.9055-.139-.2657-.334-.4751-.585-.6282-.249-.1531-.54-.2296-.875-.2296-.364 0-.682.0895-.954.2686-.268.1762-.476.4073-.623.6932-.145.283-.217.5906-.217.9228v.7582c0 .4448.078.8231.234 1.135.159.312.38.5503.663.7149.283.1617.613.2426.992.2426.245 0 .469-.0347.671-.104.203-.0722.377-.179.525-.3206.147-.1415.26-.3162.337-.5242l1.227.221c-.099.361-.275.6773-.529.9488-.251.2686-.568.478-.949.6282-.378.1473-.81.2209-1.295.2209zm7.703-6.7888v1.0397h-3.76v-1.0397zm-2.729 6.6545v-7.4257c0-.4159.091-.7611.273-1.0355.182-.2772.423-.4837.723-.6195.301-.1386.627-.2079.979-.2079.26 0 .483.0216.667.0649.185.0405.323.078.412.1127l-.303 1.0484c-.061-.0173-.139-.0375-.234-.0606-.095-.026-.211-.039-.347-.039-.315 0-.54.078-.676.2339-.132.156-.199.3813-.199.6759v7.2524zm5.605-8.8727v8.8727h-1.295v-8.8727zm4.79 9.007c-.624 0-1.169-.143-1.634-.4289s-.826-.686-1.083-1.2001-.385-1.1148-.385-1.8022c0-.6903.128-1.294.385-1.811s.618-.9184 1.083-1.2044c.465-.2859 1.01-.4289 1.634-.4289s1.168.143 1.633.4289c.465.286.826.6874 1.083 1.2044s.386 1.1207.386 1.811c0 .6874-.129 1.2881-.386 1.8022s-.618.9142-1.083 1.2001-1.009.4289-1.633.4289zm.004-1.0874c.404 0 .74-.1069 1.005-.3206.266-.2138.462-.4982.589-.8535.13-.3553.195-.7466.195-1.1741 0-.4246-.065-.8145-.195-1.1697-.127-.3582-.323-.6455-.589-.8622-.265-.2166-.601-.3249-1.005-.3249-.407 0-.745.1083-1.014.3249-.265.2167-.463.504-.593.8622-.127.3552-.191.7451-.191 1.1697 0 .4275.064.8188.191 1.1741.13.3553.328.6397.593.8535.269.2137.607.3206 1.014.3206zm6.028.9531-1.958-6.6545h1.338l1.304 4.8869h.065l1.309-4.8869h1.338l1.3 4.8652h.065l1.296-4.8652h1.338l-1.954 6.6545h-1.321l-1.352-4.8046h-.099l-1.352 4.8046z" fill="#fff"/><path d="m32 0h1v32h-1z" fill="#e151ff"/></svg>
